<svg width="144" height="144" viewBox="0 0 144 144" fill="none" xmlns="http://www.w3.org/2000/svg">
<path d="M90.0534 102H108C121.255 102 132 91.2548 132 78C132 66.7431 124.25 57.2963 113.794 54.7042C113.93 53.4882 114 52.2522 114 51C114 32.7746 99.2254 18 81 18C65.8834 18 53.1407 28.1642 49.2334 42.0311C48.8249 42.0105 48.4137 42 48 42C34.7452 42 24 52.7452 24 66C24 66.3406 24.0071 66.6796 24.0211 67.0168C17.0189 69.4818 12 76.1548 12 84C12 93.9411 20.0589 102 30 102H47.0895L72.7905 57.0232C75.8432 51.6811 84 53.8472 84 60V84H90C94.6069 84 97.4951 88.9769 95.2095 92.9768L90.0534 102Z" fill="white"/>
<path d="M54 102L78 60V90H90L66 132V102H54Z" fill="white"/>
</svg>
