<svg width="144" height="144" viewBox="0 0 144 144" fill="none" xmlns="http://www.w3.org/2000/svg">
<path d="M36.3138 27.6384L33.9727 25.2877C31.6316 22.937 27.8499 22.9973 25.5689 25.2877L25.5089 25.3479C23.1678 27.6986 23.1678 31.4959 25.5089 33.7863L27.8499 36.137C30.191 38.4877 33.9127 38.4877 36.2538 36.137L36.3138 36.0767C38.6548 33.7863 38.6548 29.9288 36.3138 27.6384V27.6384ZM18.0655 65.9726H11.9427C8.6412 65.9726 6 68.6246 6 71.9397V72C6 75.3151 8.6412 77.9671 11.9427 77.9671H18.0055C21.367 78.0274 24.0082 75.3753 24.0082 72.0603V72C24.0082 68.6247 21.367 65.9726 18.0655 65.9726ZM72.09 6H72.03C68.6685 6 66.0273 8.65205 66.0273 11.9671V17.7534C66.0273 21.0685 68.6685 23.7205 71.97 23.7205H72.03C75.3915 23.7808 78.0327 21.1288 78.0327 17.8137V11.9671C78.0327 8.65205 75.3915 6 72.09 6V6ZM118.551 25.3479C116.21 22.9973 112.428 22.9973 110.087 25.2877L107.746 27.6384C105.405 29.989 105.405 33.7863 107.746 36.0767L107.806 36.137C110.147 38.4877 113.929 38.4877 116.21 36.137L118.551 33.7863C120.892 31.4356 120.892 27.6986 118.551 25.3479V25.3479ZM107.686 116.362L110.027 118.712C112.368 121.063 116.15 121.063 118.491 118.712C120.832 116.362 120.832 112.564 118.491 110.214L116.15 107.863C113.809 105.512 110.027 105.573 107.746 107.863C105.345 110.274 105.345 114.011 107.686 116.362ZM120.052 71.9397V72C120.052 75.3151 122.693 77.9671 125.995 77.9671H132.057C135.359 77.9671 138 75.3151 138 72V71.9397C138 68.6246 135.359 65.9726 132.057 65.9726H125.995C122.693 65.9726 120.052 68.6246 120.052 71.9397ZM72.03 35.8356C52.161 35.8356 36.0136 52.0493 36.0136 72C36.0136 91.9507 52.161 108.164 72.03 108.164C91.899 108.164 108.046 91.9507 108.046 72C108.046 52.0493 91.899 35.8356 72.03 35.8356ZM71.97 138H72.03C75.3315 138 77.9727 135.348 77.9727 132.033V126.247C77.9727 122.932 75.3315 120.279 72.03 120.279H71.97C68.6685 120.279 66.0273 122.932 66.0273 126.247V132.033C66.0273 135.348 68.6685 138 71.97 138ZM25.5089 118.652C27.8499 121.003 31.6316 121.003 33.9727 118.652L36.3138 116.301C38.6548 113.951 38.5948 110.153 36.3138 107.863L36.2538 107.803C33.9127 105.452 30.131 105.452 27.7899 107.803L25.4488 110.153C23.1678 112.564 23.1678 116.301 25.5089 118.652Z" fill="white"/>
</svg>
