<svg width="144" height="144" viewBox="0 0 144 144" fill="none" xmlns="http://www.w3.org/2000/svg">
<path d="M30 102H108C121.255 102 132 91.2548 132 78C132 66.7431 124.25 57.2963 113.794 54.7042C113.93 53.4882 114 52.2522 114 51C114 32.7746 99.2254 18 81 18C65.8834 18 53.1407 28.1642 49.2334 42.0311C48.8249 42.0105 48.4137 42 48 42C34.7452 42 24 52.7452 24 66C24 66.3406 24.0071 66.6796 24.0211 67.0168C17.0189 69.4818 12 76.1548 12 84C12 93.9411 20.0589 102 30 102Z" fill="white"/>
<path d="M44.4875 108C42.963 108 41.5693 108.861 40.8875 110.225L32.9125 126.175C31.5744 128.851 33.5204 132 36.5125 132C38.037 132 39.4307 131.139 40.1125 129.775L48.0875 113.825C49.4256 111.149 47.4796 108 44.4875 108Z" fill="white"/>
<path d="M62.4875 108C65.4796 108 67.4256 111.149 66.0875 113.825L58.1125 129.775C57.4307 131.139 56.037 132 54.5125 132C51.5204 132 49.5744 128.851 50.9125 126.175L58.8875 110.225C59.5693 108.861 60.963 108 62.4875 108Z" fill="white"/>
<path d="M98.4875 108C101.48 108 103.426 111.149 102.088 113.825L94.1125 129.775C93.4307 131.139 92.037 132 90.5125 132C87.5204 132 85.5744 128.851 86.9125 126.175L94.8875 110.225C95.5693 108.861 96.963 108 98.4875 108Z" fill="white"/>
<path d="M80.4875 108C83.4796 108 85.4256 111.149 84.0875 113.825L76.1125 129.775C75.4307 131.139 74.037 132 72.5125 132C69.5204 132 67.5744 128.851 68.9125 126.175L76.8875 110.225C77.5693 108.861 78.963 108 80.4875 108Z" fill="white"/>
</svg>
