<svg width="144" height="144" viewBox="0 0 144 144" fill="none" xmlns="http://www.w3.org/2000/svg">
<path d="M30 102H108C121.255 102 132 91.2548 132 78C132 66.7431 124.25 57.2963 113.794 54.7042C113.93 53.4882 114 52.2522 114 51C114 32.7746 99.2254 18 81 18C65.8834 18 53.1407 28.1642 49.2334 42.0311C48.8249 42.0105 48.4137 42 48 42C34.7452 42 24 52.7452 24 66C24 66.3406 24.0071 66.6796 24.0211 67.0168C17.0189 69.4818 12 76.1548 12 84C12 93.9411 20.0589 102 30 102Z" fill="white"/>
<path d="M30 114C26.6863 114 24 116.686 24 120C24 123.314 26.6863 126 30 126H114C117.314 126 120 123.314 120 120C120 116.686 117.314 114 114 114H30Z" fill="white"/>
</svg>
