<svg width="144" height="144" viewBox="0 0 144 144" fill="none" xmlns="http://www.w3.org/2000/svg">
<path d="M108 102H30C20.0589 102 12 93.9411 12 84C12 76.1548 17.0189 69.4818 24.0211 67.0168C24.0071 66.6796 24 66.3406 24 66C24 52.7452 34.7452 42 48 42C48.4137 42 48.8249 42.0105 49.2334 42.0311C53.1407 28.1642 65.8834 18 81 18C99.2254 18 114 32.7746 114 51C114 52.2522 113.93 53.4882 113.794 54.7042C124.25 57.2963 132 66.7431 132 78C132 91.2548 121.255 102 108 102Z" fill="white"/>
<path d="M50.6897 132H57.3103L56.6483 124.667L62.6897 128.917L66 123.083L59.3793 120L66 116.917L62.6897 111.083L56.6483 115.333L57.3103 108H50.6897L51.3517 115.333L45.3103 111.083L42 116.917L48.6207 120L42 123.083L45.3103 128.917L51.3517 124.667L50.6897 132Z" fill="white"/>
<path d="M93.3103 132H86.6897L87.3517 124.667L81.3103 128.917L78 123.083L84.6207 120L78 116.917L81.3103 111.083L87.3517 115.333L86.6897 108H93.3103L92.6483 115.333L98.6897 111.083L102 116.917L95.3793 120L102 123.083L98.6897 128.917L92.6483 124.667L93.3103 132Z" fill="white"/>
</svg>
